<?xml version="1.0" encoding="UTF-8"?>
<svg version="1.1" xmlns="http://www.w3.org/2000/svg" width="512" height="512">
<path d="M0 0 C0.886875 0.680625 1.77375 1.36125 2.6875 2.0625 C4.07388672 3.12017578 4.07388672 3.12017578 5.48828125 4.19921875 C9.19072573 7.30677926 11.80997698 10.99292915 14.5625 14.9375 C15.12074463 15.72503662 15.67898926 16.51257324 16.25415039 17.32397461 C18.07372453 19.89763359 19.8806087 22.47992546 21.6875 25.0625 C22.89684335 26.77494588 24.10648163 28.48718351 25.31640625 30.19921875 C59.5143935 78.79682664 91.85704559 128.98786076 118.6875 182.0625 C119.21730469 183.10599609 119.74710937 184.14949219 120.29296875 185.22460938 C145.54029176 235.26948123 160.37719096 285.32922191 142.31640625 340.44921875 C139.8777518 347.52647394 136.96781622 354.337419 133.6875 361.0625 C133.38086426 361.69494629 133.07422852 362.32739258 132.75830078 362.97900391 C127.97824389 372.70018753 122.25419912 381.46078745 115.6875 390.0625 C115.00300781 390.97257812 114.31851562 391.88265625 113.61328125 392.8203125 C85.44273838 428.77129101 43.12566946 452.34996669 -2.17059326 457.85108948 C-5.64509334 458.19402966 -9.10821388 458.26392155 -12.59765625 458.30078125 C-13.36789627 458.31052979 -14.13813629 458.32027832 -14.93171692 458.33032227 C-38.02821857 458.5624552 -59.42827238 456.99291617 -81.3125 449.0625 C-82.51519531 448.63324219 -83.71789062 448.20398438 -84.95703125 447.76171875 C-107.06228297 439.40456821 -126.96364424 427.06950327 -143.83349609 410.51074219 C-145.27607299 409.09816937 -146.74132755 407.7088739 -148.20703125 406.3203125 C-177.56489539 377.98894711 -196.37886933 335.45538755 -197.55078125 294.640625 C-197.77408817 279.90538596 -197.16255234 266.30200983 -193.3125 252.0625 C-193.11414551 251.28777344 -192.91579102 250.51304687 -192.71142578 249.71484375 C-186.03697008 223.93031162 -174.21190482 199.77604593 -162.3125 176.0625 C-161.7954248 175.03108887 -161.27834961 173.99967773 -160.74560547 172.93701172 C-153.68507411 158.94239942 -146.0039717 145.35406899 -137.99121094 131.88476562 C-136.42722274 129.25537302 -134.87278766 126.62057531 -133.3203125 123.984375 C-115.93234795 94.5877739 -96.87320678 66.05674511 -77.3125 38.0625 C-76.84473145 37.39041504 -76.37696289 36.71833008 -75.89501953 36.02587891 C-72.40248224 31.01274992 -68.86927468 26.0302079 -65.3125 21.0625 C-64.79478027 20.33369629 -64.27706055 19.60489258 -63.74365234 18.85400391 C-62.196448 16.68446574 -60.63214359 14.52834149 -59.0625 12.375 C-58.60367432 11.72789063 -58.14484863 11.08078125 -57.67211914 10.4140625 C-53.20136632 4.3567599 -47.56484874 -0.34939204 -40.5625 -3.25 C-39.84578125 -3.55550781 -39.1290625 -3.86101563 -38.390625 -4.17578125 C-25.79050619 -8.79424585 -11.32472371 -6.623895 0 0 Z " fill="#2E9CF4" transform="translate(279.3125,29.9375)"/>
<path d="M0 0 C0.886875 0.680625 1.77375 1.36125 2.6875 2.0625 C4.07388672 3.12017578 4.07388672 3.12017578 5.48828125 4.19921875 C9.19072573 7.30677926 11.80997698 10.99292915 14.5625 14.9375 C15.12074463 15.72503662 15.67898926 16.51257324 16.25415039 17.32397461 C18.07372453 19.89763359 19.8806087 22.47992546 21.6875 25.0625 C22.89684335 26.77494588 24.10648163 28.48718351 25.31640625 30.19921875 C59.5143935 78.79682664 91.85704559 128.98786076 118.6875 182.0625 C119.21730469 183.10599609 119.74710937 184.14949219 120.29296875 185.22460938 C131.90247334 208.2367984 144.89739358 234.2890719 148.6875 260.0625 C148.3575 260.7225 148.0275 261.3825 147.6875 262.0625 C146.7284375 261.134375 146.7284375 261.134375 145.75 260.1875 C142.869298 258.18864555 141.7905673 257.73964498 138.51953125 257.16796875 C133.72259798 256.17960961 129.69688166 254.37901674 125.3125 252.25 C102.98075577 242.03109808 79.44692528 239.12105907 55.84960938 247.24902344 C51.05351604 249.05351564 46.45862571 251.20272654 41.88671875 253.51171875 C29.98460344 259.28112019 13.33127519 260.09153376 0.40234375 257.01953125 C-3.42786374 255.66931422 -7.06469327 253.95079055 -10.75 252.25 C-33.07835663 242.03956878 -56.54975486 239.11991556 -80.15039062 247.24902344 C-84.94648396 249.05351564 -89.54137429 251.20272654 -94.11328125 253.51171875 C-102.26279581 257.46209394 -110.20267643 258.24238059 -119.125 258.25 C-119.86814453 258.26224609 -120.61128906 258.27449219 -121.37695312 258.28710938 C-130.79833241 258.31145402 -138.79899047 256.1529371 -147.3125 252.25 C-166.1297975 243.97366868 -166.1297975 243.97366868 -186.3125 243.0625 C-188.53728585 244.01748552 -188.53728585 244.01748552 -190.3125 245.0625 C-189.75595239 238.29756786 -187.39928945 232.4118454 -184.9375 226.125 C-184.49124268 224.97837891 -184.04498535 223.83175781 -183.58520508 222.65039062 C-168.60237951 184.67267287 -148.7336394 149.13128574 -127.38525391 114.43164062 C-126.07001684 112.29379946 -124.75693213 110.15463143 -123.44677734 108.01367188 C-115.58708901 95.1809993 -107.41157373 82.58017921 -99.0625 70.0625 C-98.60831696 69.38152252 -98.15413391 68.70054504 -97.68618774 67.99893188 C-87.13041249 52.19169372 -76.37804134 36.51761935 -65.3125 21.0625 C-64.79478027 20.33369629 -64.27706055 19.60489258 -63.74365234 18.85400391 C-62.196448 16.68446574 -60.63214359 14.52834149 -59.0625 12.375 C-58.60367432 11.72789063 -58.14484863 11.08078125 -57.67211914 10.4140625 C-53.20136632 4.3567599 -47.56484874 -0.34939204 -40.5625 -3.25 C-39.84578125 -3.55550781 -39.1290625 -3.86101563 -38.390625 -4.17578125 C-25.79050619 -8.79424585 -11.32472371 -6.623895 0 0 Z " fill="#4FB1FD" transform="translate(279.3125,29.9375)"/>
<path d="M0 0 C1.03898438 0.44730469 2.07796875 0.89460938 3.1484375 1.35546875 C4.06367188 1.7628125 4.97890625 2.17015625 5.921875 2.58984375 C11.99226247 4.75189956 18.21778319 4.78753053 24.5859375 4.79296875 C25.32908203 4.80521484 26.07222656 4.81746094 26.83789062 4.83007812 C36.76673083 4.85573404 44.89733537 2.38750608 53.8359375 -1.76953125 C78.25637431 -12.55484721 101.4014533 -13.35176144 126.5234375 -3.95703125 C129.71227316 -2.6775357 132.87586103 -1.35074059 136.03515625 0 C137.08316406 0.44730469 138.13117188 0.89460938 139.2109375 1.35546875 C140.13777344 1.7628125 141.06460937 2.17015625 142.01953125 2.58984375 C149.71183593 5.42672207 158.08739854 4.87506412 166.18359375 4.94726562 C167.22644531 4.97498047 168.26929688 5.00269531 169.34375 5.03125 C170.76324951 5.05312378 170.76324951 5.05312378 172.21142578 5.07543945 C175.52856914 5.76169047 176.7148904 6.95637411 178.7734375 9.60546875 C180.33370147 16.92670736 177.48705517 21.72197235 173.67895508 27.80273438 C166.95173118 38.13682396 159.26104393 47.66168804 150.7734375 56.60546875 C150.32774414 57.07839355 149.88205078 57.55131836 149.42285156 58.03857422 C121.8791946 87.08512804 80.2886963 108.51289124 39.74194336 109.7824707 C38.32414932 109.80858389 36.90623664 109.82877184 35.48828125 109.84375 C34.71804123 109.85349854 33.94780121 109.86324707 33.15422058 109.87329102 C10.05771893 110.10542395 -11.34233488 108.53588492 -33.2265625 100.60546875 C-34.42925781 100.17621094 -35.63195312 99.74695313 -36.87109375 99.3046875 C-58.97634547 90.94753696 -78.87770674 78.61247202 -95.74755859 62.05371094 C-97.19013549 60.64113812 -98.65539005 59.25184265 -100.12109375 57.86328125 C-109.64677826 48.67066263 -117.24246173 38.46114249 -124.3515625 27.35546875 C-124.83753906 26.62320068 -125.32351562 25.89093262 -125.82421875 25.13647461 C-128.64793853 20.58629573 -129.77032398 17.01792985 -129.78857422 11.65722656 C-128.97517163 8.68770643 -127.6508041 7.46509053 -125.2265625 5.60546875 C-122.68383789 5.12304688 -122.68383789 5.12304688 -119.82421875 5.13671875 C-118.77548584 5.12560059 -117.72675293 5.11448242 -116.64624023 5.10302734 C-115.53837158 5.10383301 -114.43050293 5.10463867 -113.2890625 5.10546875 C-101.2646447 4.85437287 -92.45722833 2.99281701 -81.50952148 -1.97583008 C-53.543858 -14.61360979 -27.81403684 -12.02132101 0 0 Z " fill="#1B8CE5" transform="translate(231.2265625,378.39453125)"/>
<path d="M0 0 C0.886875 0.680625 1.77375 1.36125 2.6875 2.0625 C4.07388672 3.12017578 4.07388672 3.12017578 5.48828125 4.19921875 C9.19072573 7.30677926 11.80997698 10.99292915 14.5625 14.9375 C15.12074463 15.72503662 15.67898926 16.51257324 16.25415039 17.32397461 C18.07372453 19.89763359 19.8806087 22.47992546 21.6875 25.0625 C22.89684335 26.77494588 24.10648163 28.48718351 25.31640625 30.19921875 C51.76219636 67.78044038 76.74239805 106.44255587 99.8125 146.1875 C100.32780273 147.06438477 100.84310547 147.94126953 101.37402344 148.84472656 C101.83067383 149.64104492 102.28732422 150.43736328 102.7578125 151.2578125 C103.15758301 151.94891113 103.55735352 152.64000977 103.96923828 153.35205078 C104.32477783 154.19872314 104.32477783 154.19872314 104.6875 155.0625 C104.3575 155.7225 104.0275 156.3825 103.6875 157.0625 C103.3575 156.7325 103.0275 156.4025 102.6875 156.0625 C96.66093673 155.64936237 92.57085486 156.51323033 87.125 159 C72.97751308 165.33184513 56.37990019 164.91738772 42.01953125 159.48828125 C39.10291647 158.24025734 36.23671744 156.93039225 33.375 155.5625 C12.45326464 145.9274903 -11.34816204 144.59560745 -33.18261719 152.24902344 C-37.95914869 154.07334748 -42.55089159 156.20753316 -47.11328125 158.51171875 C-59.09835996 164.32133566 -75.61435385 165.46314202 -88.4387207 161.52587891 C-93.31206189 159.83306749 -97.97496927 157.78520058 -102.625 155.5625 C-115.9204233 149.36714743 -129.67419915 146.55257755 -144.3125 148.0625 C-145.7975 149.0525 -145.7975 149.0525 -147.3125 150.0625 C-146.05652837 145.93249638 -144.52987539 142.43363923 -142.29296875 138.74609375 C-141.68976807 137.74578125 -141.08656738 136.74546875 -140.46508789 135.71484375 C-139.81660889 134.65394531 -139.16812988 133.59304687 -138.5 132.5 C-137.48957642 130.83324219 -137.48957642 130.83324219 -136.45874023 129.1328125 C-134.41725377 125.77155054 -132.36642779 122.41617107 -130.3125 119.0625 C-129.74499023 118.13324707 -129.17748047 117.20399414 -128.59277344 116.24658203 C-116.15917995 95.9120809 -103.39335707 75.78763449 -89.79882812 56.20751953 C-88.35319835 54.12123451 -86.9169498 52.02885961 -85.484375 49.93359375 C-78.85672582 40.24150969 -72.14784036 30.60934437 -65.3125 21.0625 C-64.79478027 20.33369629 -64.27706055 19.60489258 -63.74365234 18.85400391 C-62.196448 16.68446574 -60.63214359 14.52834149 -59.0625 12.375 C-58.60367432 11.72789063 -58.14484863 11.08078125 -57.67211914 10.4140625 C-53.20136632 4.3567599 -47.56484874 -0.34939204 -40.5625 -3.25 C-39.84578125 -3.55550781 -39.1290625 -3.86101563 -38.390625 -4.17578125 C-25.79050619 -8.79424585 -11.32472371 -6.623895 0 0 Z " fill="#85C8FD" transform="translate(279.3125,29.9375)"/>
</svg>
